<?xml version="1.0" encoding="utf-8"?>
<!-- Generator: Adobe Illustrator 19.2.1, SVG Export Plug-In . SVG Version: 6.00 Build 0)  -->
<svg version="1.1" id="Layer_1" xmlns="http://www.w3.org/2000/svg" xmlns:xlink="http://www.w3.org/1999/xlink" x="0px" y="0px"
	 viewBox="0 0 500 500" style="enable-background:new 0 0 500 500;" xml:space="preserve">
<style type="text/css">
	.st0{fill:#B8B8B8;}
	.st1{display:none;}
	.st2{display:inline;}
	.st3{fill:#FFFFFF;}
</style>
<g id="Layer_1_1_">
	<rect id="BG" class="st0" width="500" height="500"/>
	<g id="GROUP" class="st1">
		<g class="st2">
			<path class="st3" d="M330.2,215.2c-1.9,4.5-4.2,8.8-6.8,12.8c0.5,0.2,1,0.4,1.6,0.6l0.2,0.1c4.3,1.7,8,4.6,10.7,8.2l0.1,0.1
				c1.8,2.4,3.1,5.1,3.9,8c6,2.4,12.5,3.6,19.6,3.6c7.2,0,14-1.4,20.3-4.1c6.3-2.7,11.9-6.5,16.7-11.3c4.8-4.8,8.6-10.4,11.3-16.7
				c2.7-6.3,4.1-13.1,4.1-20.3c0-7.5-1.4-14.4-4.1-20.7s-6.5-11.9-11.3-16.7s-10.4-8.6-16.7-11.3c-6.3-2.7-13.1-4.1-20.3-4.1
				c-7.5,0-14.4,1.4-20.7,4.1c-2.6,1.1-5.1,2.4-7.5,3.9c3.7,9.5,5.6,19.9,5.6,30.9C336.8,194,334.5,205,330.2,215.2z"/>
			<path class="st3" d="M414.7,252.6c0-0.9-0.2-1.6-0.7-2.3c-0.5-0.6-1.1-1-1.8-1.4c-0.8-0.3-1.5-0.5-2.3-0.5s-1.4,0.2-2,0.5
				c-0.9,0.6-1.8,1.2-2.7,1.8c-0.9,0.6-1.9,1.2-2.9,1.8c-1.1,0.6-2,1.3-2.9,2c-0.9,0.8-2,1.4-3.2,2c-0.9,0.6-2,1.3-3.4,2
				c-1.4,0.8-2.7,1.4-4.1,2s-2.8,1.2-4.3,1.8c-1.5,0.6-3.2,1.1-5,1.4c-1.8,0.6-3.5,1.1-5.2,1.6s-3.3,0.8-5,1.1
				c-1.7,0.3-3.4,0.5-5.2,0.7c-1.8,0.2-3.6,0.2-5.4,0.2c-1.5,0-3.2-0.1-5-0.2s-3.5-0.4-5.2-0.7c-1.7-0.3-3.3-0.7-5-1.1
				c-0.6-0.2-1.2-0.3-1.8-0.5l10.6,109.3h68.9c0.6,0,1.2-0.2,1.8-0.5c0.6-0.3,1.1-0.7,1.6-1.1c0.5-0.5,0.7-1,0.9-1.6
				c0.1-0.6,0.2-1.2,0.2-1.8L414.7,252.6z"/>
			<path class="st3" d="M160.7,265.5c-1.7,0.5-3.3,0.8-5,1.1c-1.7,0.3-3.4,0.5-5.2,0.7s-3.6,0.2-5.4,0.2c-1.5,0-3.2-0.1-5-0.2
				s-3.5-0.4-5.2-0.7c-1.7-0.3-3.3-0.7-5-1.1c-1.7-0.5-3.4-1-5.2-1.6c-1.8-0.3-3.5-0.7-5-1.4c-1.5-0.6-2.9-1.2-4.3-1.8
				c-1.4-0.6-2.7-1.3-4.1-2s-2.5-1.4-3.4-2c-1.2-0.6-2.3-1.3-3.2-2c-0.9-0.7-1.9-1.4-2.9-2c-1.1-0.6-2-1.2-2.9-1.8s-1.8-1.2-2.7-1.8
				c-0.6-0.3-1.3-0.5-2-0.5c-0.8,0-1.5,0.2-2.3,0.5s-1.4,0.8-1.8,1.4c-0.5,0.6-0.7,1.4-0.7,2.3L78.5,369.3c0,0.6,0.1,1.2,0.2,1.8
				c0.1,0.6,0.5,1.1,0.9,1.6s1,0.8,1.6,1.1c0.6,0.3,1.2,0.5,1.8,0.5h68.9L162.5,265C161.9,265.1,161.3,265.3,160.7,265.5z"/>
			<path class="st3" d="M168.7,236.8c2.7-3.6,6.4-6.5,10.7-8.2c0.6-0.2,1.1-0.4,1.7-0.6c-2.6-4-4.9-8.3-6.8-12.8
				c-4.4-10.2-6.6-21.3-6.6-32.8c0-11,1.9-21.3,5.6-30.9c-2.4-1.5-4.8-2.8-7.4-3.9c-6.3-2.7-13.1-4.1-20.3-4.1
				c-7.5,0-14.4,1.4-20.7,4.1c-6.3,2.7-11.9,6.5-16.7,11.3c-4.8,4.8-8.6,10.4-11.3,16.7c-2.7,6.3-4.1,13.2-4.1,20.7
				c0,7.2,1.4,14,4.1,20.3s6.5,11.9,11.3,16.7s10.4,8.6,16.7,11.3c6.3,2.7,13.2,4.1,20.7,4.1c6.8,0,13.1-1.2,19.1-3.6
				C165.5,242.1,166.8,239.4,168.7,236.8L168.7,236.8z"/>
			<path class="st3" d="M320.6,251.6c0-1.1-0.3-2-0.8-2.8c-0.6-0.7-1.3-1.3-2.2-1.7c-0.9-0.4-1.9-0.6-2.8-0.6s-1.8,0.2-2.5,0.6
				c-1.1,0.7-2.2,1.5-3.3,2.2c-1.1,0.7-2.3,1.5-3.6,2.2c-1.3,0.7-2.5,1.6-3.6,2.5s-2.4,1.8-3.9,2.5c-1.1,0.7-2.5,1.6-4.2,2.5
				s-3.3,1.8-5,2.5s-3.4,1.5-5.3,2.2s-3.9,1.3-6.1,1.7c-2.2,0.7-4.3,1.4-6.4,1.9c-2,0.6-4.1,1-6.1,1.4s-4.2,0.6-6.4,0.8
				c-2.2,0.2-4.4,0.3-6.6,0.3c-1.9,0-3.9-0.1-6.1-0.3c-2.2-0.2-4.3-0.5-6.4-0.8c-2-0.4-4.1-0.8-6.1-1.4s-4.2-1.2-6.4-1.9
				c-2.2-0.4-4.2-0.9-6.1-1.7c-1.9-0.7-3.6-1.5-5.3-2.2s-3.3-1.6-5-2.5s-3-1.7-4.2-2.5c-1.5-0.7-2.8-1.6-3.9-2.5
				c-1.1-0.9-2.3-1.7-3.6-2.5c-1.3-0.7-2.5-1.5-3.6-2.2s-2.2-1.5-3.3-2.2c-0.7-0.4-1.6-0.6-2.5-0.6s-1.9,0.2-2.8,0.6
				c-0.9,0.4-1.7,0.9-2.2,1.7c-0.6,0.7-0.8,1.7-0.8,2.8L170,395.1c0,0.7,0.1,1.5,0.3,2.2s0.6,1.4,1.1,1.9c0.6,0.6,1.2,1,1.9,1.4
				s1.5,0.6,2.2,0.6h153.4c0.7,0,1.5-0.2,2.2-0.6s1.4-0.8,1.9-1.4c0.6-0.6,0.9-1.2,1.1-1.9c0.2-0.7,0.3-1.5,0.3-2.2L320.6,251.6z"/>
			<path class="st3" d="M206.5,227.8c5.9,5.9,12.7,10.5,20.5,13.8s16.2,5,25.5,5c8.9,0,17.2-1.7,24.9-5c7.8-3.3,14.6-7.9,20.5-13.8
				c5.9-5.9,10.5-12.7,13.8-20.5s5-16.1,5-24.9c0-9.2-1.7-17.7-5-25.5s-7.9-14.6-13.8-20.5s-12.7-10.5-20.5-13.8s-16.1-5-24.9-5
				c-9.2,0-17.7,1.7-25.5,5s-14.6,7.9-20.5,13.8c-5.9,5.9-10.5,12.7-13.8,20.5s-5,16.3-5,25.5c0,8.9,1.7,17.2,5,24.9
				C196,215.1,200.6,221.9,206.5,227.8z"/>
		</g>
	</g>
</g>
<g id="Layer_2">
	<g id="XMLID_139_">
		<path id="XMLID_140_" class="st3" d="M186.2,259.9c34.7,0,63.4-28,63.4-63.4v-17.4c0-32.1-28.7-55.4-60.8-55.4h-10
			c-32.1,0-56.1,23.4-56.1,55.4v17.4C122.8,231.2,151.5,259.9,186.2,259.9z"/>
		<path id="XMLID_146_" class="st3" d="M214.9,278.6c-1.3,0-3.3,0-4.7,0.7c-17.4,8-36.7,8-54.1,0c-1.3-0.7-3.3-0.7-5.3-0.7
			c-38.7,0-68.1,26-68.1,62.1v18.7c0,5.3,6,5.3,12,5.3h177.6c5.3,0,10.7,0,10.7-6V340C283.1,304.6,254.3,278.6,214.9,278.6z"/>
		<path id="XMLID_147_" class="st3" d="M389.9,229.8v-12.7c0-25.4-18.7-46.1-44.1-46.1h-7.3c-25.4,0-48.7,20-48.7,46.1v12.7
			c0,27.4,22.7,50.1,50.1,50.1C367.2,279.2,389.9,257.2,389.9,229.8z"/>
		<path id="XMLID_148_" class="st3" d="M364.5,296.6c-1.3,0-2.7,0-4,0.7c-12,5.3-25.4,5.3-38.1,0c-4-2-9.3-0.7-12,3.3
			c-2.7,4-2.7,8.7,0,12.7c0.7,0.7,11.4,14.7,6.7,44.7c-0.7,2.7,0.7,3.3,2.7,5.3c2,2,4.7,0.7,8,0.7h80.8c5.3,0,8.7,0.7,8.7-5.3v-14
			C416.6,317.3,395.2,296.6,364.5,296.6z"/>
	</g>
</g>
</svg>
