<svg xmlns="http://www.w3.org/2000/svg" viewBox="0 0 103 103"><defs><style>.cls-1{fill:#b8b8b8;}.cls-2{fill:#fff;}</style></defs><title>robotLarge</title><g id="Layer_2" data-name="Layer 2"><g id="Layer_2-2" data-name="Layer 2"><circle class="cls-1" cx="51.5" cy="51.5" r="51.5"/><path class="cls-2" d="M64.06,95.42a28.45,28.45,0,0,1-12.56,2.7,28.45,28.45,0,0,1-12.56-2.7V69.33H64.06Z"/><polygon class="cls-2" points="33.72 92.05 25.45 88.67 25.45 72.71 33.72 72.71 33.72 92.05"/><polygon class="cls-2" points="69.28 92.05 77.55 88.67 77.55 72.71 69.28 72.71 69.28 92.05"/><path class="cls-2" d="M72.68,36.62V57.29H30.32V36.62H72.68m4.87-4.86H25.46V62.15H77.55V31.76Z"/><rect class="cls-2" x="56.31" y="43.08" width="9.44" height="8.02"/><rect class="cls-2" x="37.44" y="43.08" width="9.44" height="8.02"/><polygon class="cls-2" points="54.44 35.5 48.56 35.5 49.82 20.47 53.18 20.47 54.44 35.5"/><circle class="cls-2" cx="51.5" cy="18.51" r="6.54"/></g></g></svg>